<?xml version="1.0" standalone="no"?>
<!DOCTYPE svg PUBLIC "-//W3C//DTD SVG 20010904//EN"
 "http://www.w3.org/TR/2001/REC-SVG-20010904/DTD/svg10.dtd">
<svg version="1.0" xmlns="http://www.w3.org/2000/svg"
 width="1920.000000pt" height="1080.000000pt" viewBox="0 0 1920.000000 1080.000000"
 preserveAspectRatio="xMidYMid meet">

<g transform="translate(0.000000,1080.000000) scale(0.100000,-0.100000)"
fill="#000000" stroke="none">
<path d="M0 5400 l0 -5400 9600 0 9600 0 0 5400 0 5400 -9600 0 -9600 0 0
-5400z m9343 4052 l17 -88 -70 -308 c-39 -170 -70 -310 -70 -312 0 -2 -38 -4
-85 -4 -59 0 -85 4 -85 12 0 11 185 748 195 776 2 7 21 12 43 12 l38 0 17 -88z
m273 -312 l102 -400 -94 0 c-52 0 -94 2 -94 4 0 2 -36 180 -80 395 -44 216
-80 394 -80 397 0 2 33 4 73 4 l72 0 101 -400z m508 388 c-4 -7 -48 -78 -97
-157 -49 -80 -91 -150 -94 -156 -2 -7 45 -116 106 -244 l110 -232 -97 3 -96 3
-107 230 -107 230 26 46 c15 25 61 100 102 167 l75 122 93 0 c72 0 91 -3 86
-12z m-2174 -2387 l0 -130 35 15 c70 29 139 11 192 -49 73 -84 50 -218 -47
-267 -43 -22 -113 -26 -156 -10 -21 8 -29 7 -38 -6 -7 -9 -21 -15 -32 -12 -18
3 -19 15 -22 261 l-2 257 -25 0 c-22 0 -25 4 -25 35 l0 35 60 0 60 0 0 -129z
m1825 39 c0 -30 -3 -35 -27 -38 l-26 -3 -4 -167 c-3 -149 -6 -172 -26 -209
-49 -94 -181 -108 -252 -27 -37 43 -42 102 -10 134 23 23 33 24 61 10 21 -12
26 -59 7 -78 -18 -18 18 -52 58 -52 24 0 39 8 58 31 26 30 26 33 26 195 l0
164 -40 0 c-39 0 -40 1 -40 33 0 19 3 37 7 41 4 4 52 5 107 4 l101 -3 0 -35z
m615 25 c154 -36 236 -147 216 -291 -13 -97 -86 -181 -181 -209 -29 -8 -111
-18 -184 -21 l-131 -7 0 41 c0 41 1 42 35 42 l35 0 0 190 0 190 -35 0 c-34 0
-35 1 -35 40 l0 40 108 0 c60 0 135 -7 172 -15z m974 -10 c21 -10 47 -32 57
-49 32 -53 20 -138 -25 -175 -13 -11 -12 -16 14 -38 57 -48 57 -145 -1 -203
-39 -38 -108 -52 -244 -48 l-110 3 0 35 c0 32 3 35 33 38 l32 3 0 190 0 189
-35 0 c-34 0 -35 1 -35 41 l0 41 138 -4 c107 -3 145 -8 176 -23z m-4067 -5
c46 -20 79 -64 89 -117 8 -42 -28 -117 -67 -140 -16 -10 -29 -20 -29 -23 0 -3
19 -37 43 -75 40 -64 47 -70 83 -75 37 -5 39 -7 39 -40 l0 -35 -60 0 -59 0
-66 104 c-61 96 -69 104 -98 105 l-32 1 0 -67 0 -68 30 0 c28 0 30 -2 30 -40
l0 -41 -102 3 -103 3 0 35 c0 32 3 35 33 38 l32 3 0 189 0 189 -32 3 c-29 3
-33 7 -36 36 l-3 32 133 0 c109 0 140 -4 175 -20z m1783 -105 l0 -45 50 0 50
0 0 -35 0 -35 -50 0 -50 0 0 -94 c0 -52 3 -101 6 -110 8 -20 31 -20 68 -1 16
9 31 13 33 11 2 -2 1 -20 -2 -40 -6 -29 -13 -37 -41 -46 -19 -7 -48 -9 -64 -5
-51 11 -65 45 -69 172 -3 112 -3 113 -27 113 -21 0 -24 5 -24 35 0 31 3 35 25
35 22 0 25 4 25 35 0 28 5 38 23 45 41 16 47 12 47 -35z m-1335 -79 c75 -57
95 -166 45 -240 -81 -118 -247 -110 -310 15 -46 90 -7 203 85 245 49 23 136
13 180 -20z m775 12 c53 -36 74 -72 74 -125 l1 -48 -123 -3 -122 -3 15 -29
c33 -64 98 -77 178 -36 l47 23 0 -21 c0 -49 -12 -65 -58 -80 -60 -21 -108 -20
-158 3 -101 46 -132 187 -62 276 52 67 145 86 208 43z m250 7 c0 -14 3 -14 30
0 37 19 74 19 94 -1 20 -19 20 -35 2 -59 -10 -14 -21 -17 -49 -12 -31 5 -40 2
-57 -20 -16 -21 -20 -41 -20 -99 l0 -74 30 0 c28 0 30 -3 30 -35 l0 -35 -90 0
-90 0 0 35 c0 31 3 35 25 35 l25 0 0 105 0 105 -25 0 c-22 0 -25 4 -25 35 l0
35 60 0 c47 0 60 -3 60 -15z m2171 -21 c38 -35 59 -81 59 -129 l0 -35 -120 0
c-135 0 -145 -7 -91 -61 36 -35 85 -38 150 -9 24 11 45 20 47 20 2 0 4 -16 4
-35 0 -28 -5 -37 -31 -50 -42 -22 -119 -30 -161 -16 -112 37 -156 192 -81 289
35 46 76 63 141 59 41 -3 59 -10 83 -33z m699 21 c0 -14 3 -14 30 0 41 21 76
19 94 -7 24 -34 1 -63 -53 -63 -58 -1 -70 -21 -71 -117 l0 -78 30 0 c28 0 30
-3 30 -35 l0 -35 -90 0 -90 0 0 35 c0 31 3 35 25 35 l25 0 0 105 0 105 -25 0
c-22 0 -25 4 -25 35 l0 35 60 0 c47 0 60 -3 60 -15z m348 -22 c3 -28 0 -33
-17 -33 -28 0 -27 -5 13 -91 l34 -74 27 60 c47 104 47 105 25 105 -16 0 -20 7
-20 35 l0 36 83 -3 82 -3 3 -32 c3 -28 0 -32 -24 -35 -25 -3 -35 -18 -108
-176 -94 -202 -130 -252 -182 -252 -21 0 -42 8 -54 20 -25 25 -25 35 0 60 16
16 25 18 44 10 22 -8 28 -5 44 18 48 69 49 64 -14 198 -54 115 -60 124 -86
124 -24 0 -28 4 -28 28 0 16 3 32 7 36 4 4 43 5 88 4 l80 -3 3 -32z m-2100
-225 c18 -18 14 -63 -8 -83 -45 -40 -109 20 -75 71 17 26 62 33 83 12z m-182
-236 c110 -57 158 -171 123 -295 -16 -59 -92 -132 -158 -151 -30 -9 -62 -16
-71 -16 -53 0 -127 34 -170 79 -130 133 -73 342 110 402 38 13 123 3 166 -19z
m-422 -198 c9 -3 16 -17 16 -30 0 -17 -7 -25 -27 -31 -48 -11 -2323 13 -2335
25 -8 8 -7 13 3 16 34 13 2312 32 2343 20z m2111 -4 c473 -6 866 -13 874 -16
10 -3 11 -8 3 -16 -12 -12 -2287 -37 -2333 -25 -33 8 -43 31 -23 52 19 19 254
20 1479 5z m-3183 -397 c22 -20 24 -53 3 -53 -8 0 -15 9 -15 20 0 46 -103 36
-108 -11 -3 -29 12 -45 71 -74 53 -26 82 -65 73 -99 -15 -59 -113 -81 -160
-37 -14 14 -26 30 -26 37 0 18 30 26 35 9 3 -8 7 -22 10 -30 7 -23 80 -20 105
5 37 37 23 59 -66 103 -37 19 -55 35 -62 55 -26 77 77 132 140 75z m406 -9
c23 -26 22 -44 -4 -44 -8 0 -14 9 -14 20 0 46 -103 36 -108 -11 -3 -29 12 -45
71 -74 53 -26 82 -65 73 -99 -9 -37 -62 -68 -105 -62 -35 5 -81 40 -81 62 0
18 30 26 35 9 3 -8 7 -22 10 -30 7 -23 80 -20 105 5 37 37 23 59 -66 103 -37
19 -55 35 -62 55 -29 83 86 134 146 66z m935 22 c41 -17 71 -51 64 -71 -10
-24 -37 -18 -37 8 0 47 -87 63 -135 25 -71 -56 -71 -166 0 -212 34 -22 108
-23 140 -2 13 9 26 12 29 7 9 -14 -45 -44 -89 -49 -51 -5 -94 15 -129 61 -58
76 -33 179 53 224 51 27 61 28 104 9z m2063 -17 c15 -12 19 -41 7 -52 -10 -11
-32 13 -26 28 6 18 -37 30 -72 21 -60 -15 -44 -72 29 -108 85 -42 104 -88 58
-140 -21 -24 -76 -33 -113 -18 -47 20 -67 70 -28 70 16 0 20 -5 16 -20 -4 -16
1 -22 26 -28 44 -11 76 -3 93 24 22 33 3 61 -60 89 -28 13 -58 30 -66 39 -31
39 -5 111 44 118 26 5 73 -7 92 -23z m-3836 6 c0 -8 -7 -15 -16 -15 -9 0 -14
-6 -12 -12 49 -141 85 -222 100 -226 34 -9 18 -22 -27 -22 -42 0 -63 14 -31
22 12 3 12 9 -1 41 -15 37 -15 37 -75 37 -58 0 -59 -1 -74 -35 -18 -43 -17
-45 1 -45 8 0 15 -4 15 -10 0 -5 -20 -10 -45 -10 -25 0 -45 5 -45 10 0 6 6 10
14 10 14 0 26 25 77 163 23 61 26 77 14 77 -8 0 -15 7 -15 15 0 12 13 15 60
15 47 0 60 -3 60 -15z m1288 1 c54 -28 75 -62 79 -124 3 -45 0 -64 -17 -90
-21 -33 -87 -72 -125 -72 -59 0 -146 72 -144 120 0 8 5 4 10 -10 38 -94 159
-115 223 -39 20 24 26 41 26 81 0 45 -4 54 -39 89 -32 33 -45 39 -80 39 -73 0
-120 -37 -136 -108 -4 -19 -9 -31 -12 -29 -2 3 0 22 6 44 10 37 59 95 91 106
29 11 91 7 118 -7z m872 -1 c0 -8 -9 -15 -20 -15 -19 0 -20 -7 -20 -120 0
-113 1 -120 20 -120 11 0 20 -4 20 -10 0 -5 -25 -10 -55 -10 -30 0 -55 5 -55
10 0 6 9 10 20 10 19 0 20 7 20 119 0 110 -1 119 -20 124 -41 11 -20 27 35 27
42 0 55 -3 55 -15z m410 5 c0 -5 -9 -10 -21 -10 -16 0 -19 -4 -14 -17 4 -10
25 -66 47 -125 25 -66 46 -108 54 -108 8 0 14 -4 14 -10 0 -5 -20 -10 -45 -10
-25 0 -45 5 -45 10 0 6 7 10 15 10 18 0 18 4 3 47 -12 33 -13 33 -74 33 l-62
0 -15 -37 c-14 -36 -14 -38 4 -41 37 -6 18 -22 -26 -22 -25 0 -45 5 -45 10 0
6 6 10 13 10 11 0 97 212 97 239 0 6 -7 11 -15 11 -8 0 -15 5 -15 10 0 6 28
10 65 10 37 0 65 -4 65 -10z m480 -25 c0 -24 -5 -35 -15 -35 -8 0 -15 9 -15
20 0 17 -7 20 -40 20 l-40 0 0 -120 0 -120 26 0 c49 0 19 -25 -34 -28 -42 -2
-52 0 -52 12 0 9 9 16 20 16 19 0 20 7 20 120 l0 120 -40 0 c-33 0 -40 -3 -40
-20 0 -11 -7 -20 -15 -20 -10 0 -15 11 -15 35 l0 35 120 0 120 0 0 -35z m415
1 c0 -16 -6 -31 -12 -33 -8 -3 -13 4 -13 16 0 19 -6 21 -60 21 l-60 0 0 -50 0
-50 50 0 c38 0 50 -4 50 -15 0 -11 -12 -15 -50 -15 l-50 0 0 -55 0 -55 60 0
c53 0 60 2 60 20 0 11 7 20 15 20 10 0 15 -10 15 -30 l0 -30 -110 0 c-67 0
-110 4 -110 10 0 6 9 10 20 10 19 0 20 7 20 125 0 120 -1 125 -21 125 -11 0
-17 4 -14 10 4 7 46 10 108 8 l102 -3 0 -29z"/>
<path d="M7983 6950 c-33 -19 -33 -21 -33 -95 0 -72 1 -75 30 -90 66 -34 138
-8 160 60 34 104 -64 182 -157 125z"/>
<path d="M10250 6951 l0 -191 63 0 c68 1 127 18 159 47 56 49 74 163 38 238
-29 60 -83 87 -182 93 l-78 5 0 -192z"/>
<path d="M11190 7064 l0 -76 65 4 c77 5 108 28 108 79 0 49 -31 69 -109 69
l-64 0 0 -76z"/>
<path d="M11190 6840 l0 -80 70 0 c62 0 74 3 95 25 28 27 33 71 12 99 -14 19
-76 35 -139 36 l-38 0 0 -80z"/>
<path d="M7140 7050 l0 -90 28 0 c43 0 101 19 123 41 28 28 25 84 -6 114 -20
21 -34 25 -85 25 l-60 0 0 -90z"/>
<path d="M7578 6950 c-61 -48 -59 -142 5 -180 48 -30 83 -26 123 14 29 29 34
41 34 79 0 37 -5 51 -31 76 -37 37 -92 42 -131 11z"/>
<path d="M8405 6966 c-16 -8 -36 -23 -43 -35 -12 -21 -11 -21 73 -21 50 0 85
4 85 10 0 13 -37 50 -49 50 -5 0 -15 2 -23 5 -7 2 -26 -2 -43 -9z"/>
<path d="M10804 6966 c-26 -12 -44 -33 -44 -52 0 -2 36 -4 80 -4 47 0 80 4 80
10 0 13 -37 50 -49 50 -5 0 -15 2 -23 5 -7 2 -27 -2 -44 -9z"/>
<path d="M9537 6442 c-28 -29 -35 -66 -16 -77 6 -5 -3 -20 -25 -40 -39 -36
-46 -67 -21 -102 53 -76 249 -19 230 66 -5 23 -1 28 25 38 22 8 30 18 30 37 0
13 -5 28 -11 31 -6 4 -9 0 -7 -11 4 -21 -34 -44 -75 -44 -43 0 -67 -17 -67
-48 l0 -26 16 22 c12 18 19 20 35 12 47 -25 4 -90 -59 -90 -41 0 -82 31 -82
62 0 27 40 68 66 68 31 0 31 14 -1 28 -50 23 -17 94 35 77 11 -4 20 -13 20
-21 0 -24 17 -16 22 11 7 32 3 35 -47 35 -32 0 -47 -6 -68 -28z"/>
<path d="M7692 5875 c-12 -31 -22 -61 -22 -66 0 -5 22 -9 50 -9 l50 0 -21 58
c-12 31 -25 61 -29 65 -4 4 -17 -17 -28 -48z"/>
<path d="M10269 5904 c-6 -16 -17 -46 -25 -66 l-13 -38 49 0 c28 0 50 3 50 8
0 9 -40 115 -46 121 -2 2 -9 -9 -15 -25z"/>
</g>
</svg>
